<mxfile host="Electron" modified="2024-02-05T13:03:21.258Z" agent="Mozilla/5.0 (Windows NT 10.0; Win64; x64) AppleWebKit/537.36 (KHTML, like Gecko) draw.io/22.1.2 Chrome/114.0.5735.289 Electron/25.9.4 Safari/537.36" etag="uWjoExAxG5xDHZx30kJP" version="22.1.2" type="device">
  <diagram name="Страница — 1" id="eVEsZcw3MUEaS9acljYa">
    <mxGraphModel dx="1884" dy="1107" grid="1" gridSize="10" guides="1" tooltips="1" connect="1" arrows="1" fold="1" page="1" pageScale="1" pageWidth="827" pageHeight="1169" math="0" shadow="0">
      <root>
        <mxCell id="0" />
        <mxCell id="1" parent="0" />
        <mxCell id="zHHLwWhvpyaCA2TflrLo-2" style="edgeStyle=orthogonalEdgeStyle;rounded=0;orthogonalLoop=1;jettySize=auto;html=1;exitX=0.5;exitY=1;exitDx=0;exitDy=0;fontFamily=Times New Roman;fontSize=24;fontColor=default;" edge="1" parent="1" source="zHHLwWhvpyaCA2TflrLo-1" target="zHHLwWhvpyaCA2TflrLo-3">
          <mxGeometry relative="1" as="geometry">
            <mxPoint x="400" y="440" as="targetPoint" />
          </mxGeometry>
        </mxCell>
        <mxCell id="zHHLwWhvpyaCA2TflrLo-1" value="&lt;font style=&quot;font-size: 24px;&quot;&gt;Начало&lt;/font&gt;" style="ellipse;whiteSpace=wrap;html=1;fontFamily=Times New Roman;fontSize=24;" vertex="1" parent="1">
          <mxGeometry x="340" y="320" width="120" height="80" as="geometry" />
        </mxCell>
        <mxCell id="zHHLwWhvpyaCA2TflrLo-4" style="edgeStyle=orthogonalEdgeStyle;rounded=0;orthogonalLoop=1;jettySize=auto;html=1;fontFamily=Times New Roman;fontSize=24;fontColor=default;" edge="1" parent="1" source="zHHLwWhvpyaCA2TflrLo-3">
          <mxGeometry relative="1" as="geometry">
            <mxPoint x="400" y="560" as="targetPoint" />
          </mxGeometry>
        </mxCell>
        <mxCell id="zHHLwWhvpyaCA2TflrLo-3" value="using namespace std;" style="shape=parallelogram;perimeter=parallelogramPerimeter;whiteSpace=wrap;html=1;fixedSize=1;strokeColor=default;align=center;verticalAlign=middle;fontFamily=Times New Roman;fontSize=24;fontColor=default;fillColor=default;" vertex="1" parent="1">
          <mxGeometry x="277.5" y="450" width="245" height="60" as="geometry" />
        </mxCell>
        <mxCell id="zHHLwWhvpyaCA2TflrLo-17" style="edgeStyle=orthogonalEdgeStyle;rounded=0;orthogonalLoop=1;jettySize=auto;html=1;exitX=0.5;exitY=1;exitDx=0;exitDy=0;fontFamily=Times New Roman;fontSize=24;fontColor=default;" edge="1" parent="1" source="zHHLwWhvpyaCA2TflrLo-5">
          <mxGeometry relative="1" as="geometry">
            <mxPoint x="400" y="680" as="targetPoint" />
          </mxGeometry>
        </mxCell>
        <mxCell id="zHHLwWhvpyaCA2TflrLo-5" value="int main(){" style="shape=parallelogram;perimeter=parallelogramPerimeter;whiteSpace=wrap;html=1;fixedSize=1;strokeColor=default;align=center;verticalAlign=middle;fontFamily=Times New Roman;fontSize=24;fontColor=default;fillColor=default;" vertex="1" parent="1">
          <mxGeometry x="285" y="560" width="230" height="60" as="geometry" />
        </mxCell>
        <mxCell id="zHHLwWhvpyaCA2TflrLo-6" value="" style="endArrow=none;html=1;rounded=0;fontFamily=Times New Roman;fontSize=24;fontColor=default;" edge="1" parent="1">
          <mxGeometry width="50" height="50" relative="1" as="geometry">
            <mxPoint x="400" y="530" as="sourcePoint" />
            <mxPoint x="560" y="530" as="targetPoint" />
          </mxGeometry>
        </mxCell>
        <mxCell id="zHHLwWhvpyaCA2TflrLo-7" value="" style="endArrow=none;html=1;rounded=0;fontFamily=Times New Roman;fontSize=24;fontColor=default;" edge="1" parent="1">
          <mxGeometry width="50" height="50" relative="1" as="geometry">
            <mxPoint x="560" y="600" as="sourcePoint" />
            <mxPoint x="560" y="410" as="targetPoint" />
          </mxGeometry>
        </mxCell>
        <mxCell id="zHHLwWhvpyaCA2TflrLo-8" value="" style="endArrow=none;html=1;rounded=0;fontFamily=Times New Roman;fontSize=24;fontColor=default;" edge="1" parent="1">
          <mxGeometry width="50" height="50" relative="1" as="geometry">
            <mxPoint x="560" y="410" as="sourcePoint" />
            <mxPoint x="580" y="410" as="targetPoint" />
          </mxGeometry>
        </mxCell>
        <mxCell id="zHHLwWhvpyaCA2TflrLo-9" value="" style="endArrow=none;html=1;rounded=0;fontFamily=Times New Roman;fontSize=24;fontColor=default;" edge="1" parent="1">
          <mxGeometry width="50" height="50" relative="1" as="geometry">
            <mxPoint x="560" y="600" as="sourcePoint" />
            <mxPoint x="580" y="600" as="targetPoint" />
          </mxGeometry>
        </mxCell>
        <mxCell id="zHHLwWhvpyaCA2TflrLo-10" value="#include &amp;lt;iostream&amp;gt;;" style="text;html=1;align=center;verticalAlign=middle;resizable=0;points=[];autosize=1;strokeColor=none;fillColor=none;fontSize=24;fontFamily=Times New Roman;fontColor=default;" vertex="1" parent="1">
          <mxGeometry x="560" y="440" width="230" height="40" as="geometry" />
        </mxCell>
        <mxCell id="zHHLwWhvpyaCA2TflrLo-11" value="#include &amp;lt;stdio.h&amp;gt;;" style="text;html=1;align=center;verticalAlign=middle;resizable=0;points=[];autosize=1;strokeColor=none;fillColor=none;fontSize=24;fontFamily=Times New Roman;fontColor=default;" vertex="1" parent="1">
          <mxGeometry x="560" y="470" width="210" height="40" as="geometry" />
        </mxCell>
        <mxCell id="zHHLwWhvpyaCA2TflrLo-12" value="srand(time(NULL));" style="text;html=1;align=center;verticalAlign=middle;resizable=0;points=[];autosize=1;strokeColor=none;fillColor=none;fontSize=24;fontFamily=Times New Roman;fontColor=default;" vertex="1" parent="1">
          <mxGeometry x="560" y="500" width="220" height="40" as="geometry" />
        </mxCell>
        <mxCell id="zHHLwWhvpyaCA2TflrLo-13" value="const int n = 5, k = 3;" style="text;html=1;align=center;verticalAlign=middle;resizable=0;points=[];autosize=1;strokeColor=none;fillColor=none;fontSize=24;fontFamily=Times New Roman;fontColor=default;" vertex="1" parent="1">
          <mxGeometry x="560" y="530" width="230" height="40" as="geometry" />
        </mxCell>
        <mxCell id="zHHLwWhvpyaCA2TflrLo-14" value="int side, a[n], temp;" style="text;html=1;align=center;verticalAlign=middle;resizable=0;points=[];autosize=1;strokeColor=none;fillColor=none;fontSize=24;fontFamily=Times New Roman;fontColor=default;" vertex="1" parent="1">
          <mxGeometry x="560" y="560" width="210" height="40" as="geometry" />
        </mxCell>
        <mxCell id="zHHLwWhvpyaCA2TflrLo-16" value="setlocale(LC_ALL, &quot;Ru&quot;);" style="text;html=1;align=center;verticalAlign=middle;resizable=0;points=[];autosize=1;strokeColor=none;fillColor=none;fontSize=24;fontFamily=Times New Roman;fontColor=default;" vertex="1" parent="1">
          <mxGeometry x="560" y="410" width="280" height="40" as="geometry" />
        </mxCell>
        <mxCell id="zHHLwWhvpyaCA2TflrLo-19" style="edgeStyle=orthogonalEdgeStyle;rounded=0;orthogonalLoop=1;jettySize=auto;html=1;exitX=0.5;exitY=1;exitDx=0;exitDy=0;fontFamily=Times New Roman;fontSize=24;fontColor=default;" edge="1" parent="1" source="zHHLwWhvpyaCA2TflrLo-18">
          <mxGeometry relative="1" as="geometry">
            <mxPoint x="400" y="840" as="targetPoint" />
          </mxGeometry>
        </mxCell>
        <mxCell id="zHHLwWhvpyaCA2TflrLo-23" style="edgeStyle=orthogonalEdgeStyle;rounded=0;orthogonalLoop=1;jettySize=auto;html=1;exitX=1;exitY=0.5;exitDx=0;exitDy=0;fontFamily=Times New Roman;fontSize=24;fontColor=default;" edge="1" parent="1">
          <mxGeometry relative="1" as="geometry">
            <mxPoint x="800" y="840" as="targetPoint" />
            <mxPoint x="379.9999999999998" y="720" as="sourcePoint" />
            <Array as="points">
              <mxPoint x="801" y="720" />
              <mxPoint x="801" y="840" />
            </Array>
          </mxGeometry>
        </mxCell>
        <mxCell id="zHHLwWhvpyaCA2TflrLo-18" value="for (int i = 0; i &amp;lt; n; i ++){" style="shape=hexagon;perimeter=hexagonPerimeter2;whiteSpace=wrap;html=1;fixedSize=1;strokeColor=default;align=center;verticalAlign=middle;fontFamily=Times New Roman;fontSize=24;fontColor=default;fillColor=default;" vertex="1" parent="1">
          <mxGeometry x="260" y="680" width="280" height="80" as="geometry" />
        </mxCell>
        <mxCell id="zHHLwWhvpyaCA2TflrLo-20" value="True" style="text;html=1;align=center;verticalAlign=middle;resizable=0;points=[];autosize=1;strokeColor=none;fillColor=none;fontSize=24;fontFamily=Times New Roman;fontColor=default;" vertex="1" parent="1">
          <mxGeometry x="400" y="780" width="70" height="40" as="geometry" />
        </mxCell>
        <mxCell id="zHHLwWhvpyaCA2TflrLo-22" style="edgeStyle=orthogonalEdgeStyle;rounded=0;orthogonalLoop=1;jettySize=auto;html=1;exitX=0.5;exitY=1;exitDx=0;exitDy=0;entryX=0;entryY=0.5;entryDx=0;entryDy=0;fontFamily=Times New Roman;fontSize=24;fontColor=default;" edge="1" parent="1" source="zHHLwWhvpyaCA2TflrLo-21" target="zHHLwWhvpyaCA2TflrLo-18">
          <mxGeometry relative="1" as="geometry">
            <Array as="points">
              <mxPoint x="400" y="920" />
              <mxPoint x="200" y="920" />
              <mxPoint x="200" y="720" />
            </Array>
          </mxGeometry>
        </mxCell>
        <mxCell id="zHHLwWhvpyaCA2TflrLo-21" value="a[i] = rand() % 100 + 1;" style="rounded=0;whiteSpace=wrap;html=1;strokeColor=default;align=center;verticalAlign=middle;fontFamily=Times New Roman;fontSize=24;fontColor=default;fillColor=default;" vertex="1" parent="1">
          <mxGeometry x="275" y="840" width="250" height="50" as="geometry" />
        </mxCell>
        <mxCell id="zHHLwWhvpyaCA2TflrLo-24" value="False" style="text;html=1;align=center;verticalAlign=middle;resizable=0;points=[];autosize=1;strokeColor=none;fillColor=none;fontSize=24;fontFamily=Times New Roman;fontColor=default;" vertex="1" parent="1">
          <mxGeometry x="590" y="670" width="70" height="40" as="geometry" />
        </mxCell>
        <mxCell id="zHHLwWhvpyaCA2TflrLo-27" value="" style="edgeStyle=orthogonalEdgeStyle;rounded=0;orthogonalLoop=1;jettySize=auto;html=1;fontFamily=Times New Roman;fontSize=24;fontColor=default;" edge="1" parent="1" source="zHHLwWhvpyaCA2TflrLo-25" target="zHHLwWhvpyaCA2TflrLo-26">
          <mxGeometry relative="1" as="geometry" />
        </mxCell>
        <mxCell id="zHHLwWhvpyaCA2TflrLo-31" style="edgeStyle=orthogonalEdgeStyle;rounded=0;orthogonalLoop=1;jettySize=auto;html=1;exitX=1;exitY=0.5;exitDx=0;exitDy=0;fontFamily=Times New Roman;fontSize=24;fontColor=default;" edge="1" parent="1" source="zHHLwWhvpyaCA2TflrLo-25">
          <mxGeometry relative="1" as="geometry">
            <mxPoint x="1200" y="960" as="targetPoint" />
            <Array as="points">
              <mxPoint x="1200" y="880" />
            </Array>
          </mxGeometry>
        </mxCell>
        <mxCell id="zHHLwWhvpyaCA2TflrLo-25" value="for (int i = 0; i &amp;lt; n; i ++){" style="shape=hexagon;perimeter=hexagonPerimeter2;whiteSpace=wrap;html=1;fixedSize=1;strokeColor=default;align=center;verticalAlign=middle;fontFamily=Times New Roman;fontSize=24;fontColor=default;fillColor=default;" vertex="1" parent="1">
          <mxGeometry x="660" y="840" width="280" height="80" as="geometry" />
        </mxCell>
        <mxCell id="zHHLwWhvpyaCA2TflrLo-28" style="edgeStyle=orthogonalEdgeStyle;rounded=0;orthogonalLoop=1;jettySize=auto;html=1;exitX=0.5;exitY=1;exitDx=0;exitDy=0;entryX=0;entryY=0.5;entryDx=0;entryDy=0;fontFamily=Times New Roman;fontSize=24;fontColor=default;" edge="1" parent="1" source="zHHLwWhvpyaCA2TflrLo-26" target="zHHLwWhvpyaCA2TflrLo-25">
          <mxGeometry relative="1" as="geometry">
            <Array as="points">
              <mxPoint x="800" y="1120" />
              <mxPoint x="600" y="1120" />
              <mxPoint x="600" y="880" />
            </Array>
          </mxGeometry>
        </mxCell>
        <mxCell id="zHHLwWhvpyaCA2TflrLo-26" value="cout &amp;lt;&amp;lt; a[i] &amp;lt;&amp;lt; &quot; &quot;;" style="shape=parallelogram;perimeter=parallelogramPerimeter;whiteSpace=wrap;html=1;fixedSize=1;fontSize=24;fontFamily=Times New Roman;" vertex="1" parent="1">
          <mxGeometry x="670" y="1000" width="260" height="60" as="geometry" />
        </mxCell>
        <mxCell id="zHHLwWhvpyaCA2TflrLo-30" value="True" style="text;html=1;align=center;verticalAlign=middle;resizable=0;points=[];autosize=1;strokeColor=none;fillColor=none;fontSize=24;fontFamily=Times New Roman;fontColor=default;" vertex="1" parent="1">
          <mxGeometry x="800" y="940" width="70" height="40" as="geometry" />
        </mxCell>
        <mxCell id="zHHLwWhvpyaCA2TflrLo-32" value="False" style="text;html=1;align=center;verticalAlign=middle;resizable=0;points=[];autosize=1;strokeColor=none;fillColor=none;fontSize=24;fontFamily=Times New Roman;fontColor=default;" vertex="1" parent="1">
          <mxGeometry x="1030" y="830" width="70" height="40" as="geometry" />
        </mxCell>
        <mxCell id="zHHLwWhvpyaCA2TflrLo-36" value="" style="edgeStyle=orthogonalEdgeStyle;rounded=0;orthogonalLoop=1;jettySize=auto;html=1;fontFamily=Times New Roman;fontSize=24;fontColor=default;" edge="1" parent="1" source="zHHLwWhvpyaCA2TflrLo-34" target="zHHLwWhvpyaCA2TflrLo-35">
          <mxGeometry relative="1" as="geometry" />
        </mxCell>
        <mxCell id="zHHLwWhvpyaCA2TflrLo-34" value="cout &amp;lt;&amp;lt; &quot;В какую сторону нужно сдвинуть массив: &quot;;" style="shape=parallelogram;perimeter=parallelogramPerimeter;whiteSpace=wrap;html=1;fixedSize=1;strokeColor=default;align=center;verticalAlign=middle;fontFamily=Times New Roman;fontSize=24;fontColor=default;fillColor=default;" vertex="1" parent="1">
          <mxGeometry x="970" y="960" width="470" height="120" as="geometry" />
        </mxCell>
        <mxCell id="zHHLwWhvpyaCA2TflrLo-38" value="" style="edgeStyle=orthogonalEdgeStyle;rounded=0;orthogonalLoop=1;jettySize=auto;html=1;fontFamily=Times New Roman;fontSize=24;fontColor=default;" edge="1" parent="1" source="zHHLwWhvpyaCA2TflrLo-35" target="zHHLwWhvpyaCA2TflrLo-37">
          <mxGeometry relative="1" as="geometry" />
        </mxCell>
        <mxCell id="zHHLwWhvpyaCA2TflrLo-35" value="cin &amp;gt;&amp;gt; side;" style="shape=parallelogram;perimeter=parallelogramPerimeter;whiteSpace=wrap;html=1;fixedSize=1;fontSize=24;fontFamily=Times New Roman;" vertex="1" parent="1">
          <mxGeometry x="1072.5" y="1120" width="265" height="60" as="geometry" />
        </mxCell>
        <mxCell id="zHHLwWhvpyaCA2TflrLo-39" style="edgeStyle=orthogonalEdgeStyle;rounded=0;orthogonalLoop=1;jettySize=auto;html=1;exitX=0;exitY=0.5;exitDx=0;exitDy=0;fontFamily=Times New Roman;fontSize=24;fontColor=default;entryX=0.5;entryY=0;entryDx=0;entryDy=0;" edge="1" parent="1" source="zHHLwWhvpyaCA2TflrLo-37" target="zHHLwWhvpyaCA2TflrLo-43">
          <mxGeometry relative="1" as="geometry">
            <mxPoint x="1010" y="1430" as="targetPoint" />
            <Array as="points">
              <mxPoint x="950" y="1325" />
            </Array>
          </mxGeometry>
        </mxCell>
        <mxCell id="zHHLwWhvpyaCA2TflrLo-58" style="edgeStyle=orthogonalEdgeStyle;rounded=0;orthogonalLoop=1;jettySize=auto;html=1;exitX=1;exitY=0.5;exitDx=0;exitDy=0;fontFamily=Times New Roman;fontSize=24;fontColor=default;" edge="1" parent="1" source="zHHLwWhvpyaCA2TflrLo-37">
          <mxGeometry relative="1" as="geometry">
            <mxPoint x="1720" y="1440" as="targetPoint" />
            <Array as="points">
              <mxPoint x="1720" y="1325" />
              <mxPoint x="1720" y="1440" />
            </Array>
          </mxGeometry>
        </mxCell>
        <mxCell id="zHHLwWhvpyaCA2TflrLo-37" value="if (side){" style="rhombus;whiteSpace=wrap;html=1;fontSize=24;fontFamily=Times New Roman;" vertex="1" parent="1">
          <mxGeometry x="1107.5" y="1240" width="195" height="170" as="geometry" />
        </mxCell>
        <mxCell id="zHHLwWhvpyaCA2TflrLo-40" value="True" style="text;html=1;align=center;verticalAlign=middle;resizable=0;points=[];autosize=1;strokeColor=none;fillColor=none;fontSize=24;fontFamily=Times New Roman;fontColor=default;" vertex="1" parent="1">
          <mxGeometry x="1030" y="1280" width="70" height="40" as="geometry" />
        </mxCell>
        <mxCell id="zHHLwWhvpyaCA2TflrLo-41" value="temp = a[n -1];" style="whiteSpace=wrap;html=1;strokeColor=default;align=center;verticalAlign=middle;fontFamily=Times New Roman;fontSize=24;fontColor=default;fillColor=default;" vertex="1" parent="1">
          <mxGeometry x="870" y="1590" width="160" height="60" as="geometry" />
        </mxCell>
        <mxCell id="zHHLwWhvpyaCA2TflrLo-74" style="edgeStyle=orthogonalEdgeStyle;rounded=0;orthogonalLoop=1;jettySize=auto;html=1;exitX=1;exitY=0.5;exitDx=0;exitDy=0;fontFamily=Times New Roman;fontSize=24;fontColor=default;" edge="1" parent="1" source="zHHLwWhvpyaCA2TflrLo-43">
          <mxGeometry relative="1" as="geometry">
            <mxPoint x="1360" y="2120" as="targetPoint" />
          </mxGeometry>
        </mxCell>
        <mxCell id="zHHLwWhvpyaCA2TflrLo-43" value="for (int i = 1;&amp;nbsp; i &amp;lt;= k; i ++){" style="shape=hexagon;perimeter=hexagonPerimeter2;whiteSpace=wrap;html=1;fixedSize=1;strokeColor=default;align=center;verticalAlign=middle;fontFamily=Times New Roman;fontSize=24;fontColor=default;fillColor=default;" vertex="1" parent="1">
          <mxGeometry x="770" y="1440" width="360" height="100" as="geometry" />
        </mxCell>
        <mxCell id="zHHLwWhvpyaCA2TflrLo-44" style="edgeStyle=orthogonalEdgeStyle;rounded=0;orthogonalLoop=1;jettySize=auto;html=1;exitX=0.5;exitY=1;exitDx=0;exitDy=0;entryX=0.5;entryY=0;entryDx=0;entryDy=0;fontFamily=Times New Roman;fontSize=24;fontColor=default;" edge="1" parent="1" source="zHHLwWhvpyaCA2TflrLo-43" target="zHHLwWhvpyaCA2TflrLo-41">
          <mxGeometry relative="1" as="geometry" />
        </mxCell>
        <mxCell id="zHHLwWhvpyaCA2TflrLo-45" value="True" style="text;html=1;align=center;verticalAlign=middle;resizable=0;points=[];autosize=1;strokeColor=none;fillColor=none;fontSize=24;fontFamily=Times New Roman;fontColor=default;" vertex="1" parent="1">
          <mxGeometry x="950" y="1550" width="70" height="40" as="geometry" />
        </mxCell>
        <mxCell id="zHHLwWhvpyaCA2TflrLo-49" style="edgeStyle=orthogonalEdgeStyle;rounded=0;orthogonalLoop=1;jettySize=auto;html=1;exitX=0.5;exitY=1;exitDx=0;exitDy=0;fontFamily=Times New Roman;fontSize=24;fontColor=default;entryX=0.5;entryY=0;entryDx=0;entryDy=0;" edge="1" parent="1" source="zHHLwWhvpyaCA2TflrLo-48" target="zHHLwWhvpyaCA2TflrLo-50">
          <mxGeometry relative="1" as="geometry">
            <mxPoint x="1400" y="1760" as="targetPoint" />
          </mxGeometry>
        </mxCell>
        <mxCell id="zHHLwWhvpyaCA2TflrLo-56" style="edgeStyle=orthogonalEdgeStyle;rounded=0;orthogonalLoop=1;jettySize=auto;html=1;exitX=1;exitY=0.5;exitDx=0;exitDy=0;entryX=0.5;entryY=0;entryDx=0;entryDy=0;fontFamily=Times New Roman;fontSize=24;fontColor=default;" edge="1" parent="1" source="zHHLwWhvpyaCA2TflrLo-48" target="zHHLwWhvpyaCA2TflrLo-53">
          <mxGeometry relative="1" as="geometry" />
        </mxCell>
        <mxCell id="zHHLwWhvpyaCA2TflrLo-48" value="for (int j = n - 2;&amp;nbsp; j &amp;gt;= 0; j --){" style="shape=hexagon;perimeter=hexagonPerimeter2;whiteSpace=wrap;html=1;fixedSize=1;strokeColor=default;align=center;verticalAlign=middle;fontFamily=Times New Roman;fontSize=24;fontColor=default;fillColor=default;" vertex="1" parent="1">
          <mxGeometry x="770" y="1710" width="360" height="90" as="geometry" />
        </mxCell>
        <mxCell id="zHHLwWhvpyaCA2TflrLo-51" style="edgeStyle=orthogonalEdgeStyle;rounded=0;orthogonalLoop=1;jettySize=auto;html=1;exitX=0.5;exitY=1;exitDx=0;exitDy=0;entryX=0;entryY=0.5;entryDx=0;entryDy=0;fontFamily=Times New Roman;fontSize=24;fontColor=default;" edge="1" parent="1" source="zHHLwWhvpyaCA2TflrLo-50" target="zHHLwWhvpyaCA2TflrLo-48">
          <mxGeometry relative="1" as="geometry">
            <Array as="points">
              <mxPoint x="950" y="1990" />
              <mxPoint x="720" y="1990" />
              <mxPoint x="720" y="1755" />
            </Array>
          </mxGeometry>
        </mxCell>
        <mxCell id="zHHLwWhvpyaCA2TflrLo-50" value="a[j + 1] = a[j];" style="whiteSpace=wrap;html=1;strokeColor=default;align=center;verticalAlign=middle;fontFamily=Times New Roman;fontSize=24;fontColor=default;fillColor=default;" vertex="1" parent="1">
          <mxGeometry x="870" y="1880" width="160" height="60" as="geometry" />
        </mxCell>
        <mxCell id="zHHLwWhvpyaCA2TflrLo-57" style="edgeStyle=orthogonalEdgeStyle;rounded=0;orthogonalLoop=1;jettySize=auto;html=1;exitX=0.5;exitY=1;exitDx=0;exitDy=0;entryX=0;entryY=0.5;entryDx=0;entryDy=0;fontFamily=Times New Roman;fontSize=24;fontColor=default;" edge="1" parent="1" source="zHHLwWhvpyaCA2TflrLo-53" target="zHHLwWhvpyaCA2TflrLo-43">
          <mxGeometry relative="1" as="geometry">
            <Array as="points">
              <mxPoint x="1210" y="2040" />
              <mxPoint x="640" y="2040" />
              <mxPoint x="640" y="1490" />
            </Array>
          </mxGeometry>
        </mxCell>
        <mxCell id="zHHLwWhvpyaCA2TflrLo-53" value="a[0] = temp;" style="whiteSpace=wrap;html=1;strokeColor=default;align=center;verticalAlign=middle;fontFamily=Times New Roman;fontSize=24;fontColor=default;fillColor=default;" vertex="1" parent="1">
          <mxGeometry x="1130" y="1840" width="160" height="60" as="geometry" />
        </mxCell>
        <mxCell id="zHHLwWhvpyaCA2TflrLo-55" style="edgeStyle=orthogonalEdgeStyle;rounded=0;orthogonalLoop=1;jettySize=auto;html=1;exitX=0.5;exitY=1;exitDx=0;exitDy=0;entryX=0.5;entryY=0;entryDx=0;entryDy=0;fontFamily=Times New Roman;fontSize=24;fontColor=default;" edge="1" parent="1" source="zHHLwWhvpyaCA2TflrLo-41" target="zHHLwWhvpyaCA2TflrLo-48">
          <mxGeometry relative="1" as="geometry" />
        </mxCell>
        <mxCell id="zHHLwWhvpyaCA2TflrLo-59" value="False" style="text;html=1;align=center;verticalAlign=middle;resizable=0;points=[];autosize=1;strokeColor=none;fillColor=none;fontSize=24;fontFamily=Times New Roman;fontColor=default;" vertex="1" parent="1">
          <mxGeometry x="1360" y="1280" width="70" height="40" as="geometry" />
        </mxCell>
        <mxCell id="zHHLwWhvpyaCA2TflrLo-61" style="edgeStyle=orthogonalEdgeStyle;rounded=0;orthogonalLoop=1;jettySize=auto;html=1;exitX=0.5;exitY=1;exitDx=0;exitDy=0;fontFamily=Times New Roman;fontSize=24;fontColor=default;" edge="1" parent="1" source="zHHLwWhvpyaCA2TflrLo-60">
          <mxGeometry relative="1" as="geometry">
            <mxPoint x="1719.6363636363635" y="1600" as="targetPoint" />
          </mxGeometry>
        </mxCell>
        <mxCell id="zHHLwWhvpyaCA2TflrLo-83" style="edgeStyle=orthogonalEdgeStyle;rounded=0;orthogonalLoop=1;jettySize=auto;html=1;exitX=1;exitY=0.5;exitDx=0;exitDy=0;fontFamily=Times New Roman;fontSize=24;fontColor=default;" edge="1" parent="1" source="zHHLwWhvpyaCA2TflrLo-60">
          <mxGeometry relative="1" as="geometry">
            <mxPoint x="2080" y="2120" as="targetPoint" />
          </mxGeometry>
        </mxCell>
        <mxCell id="zHHLwWhvpyaCA2TflrLo-60" value="for (int i = 1;&amp;nbsp; i &amp;lt;= n - k; i ++){" style="shape=hexagon;perimeter=hexagonPerimeter2;whiteSpace=wrap;html=1;fixedSize=1;strokeColor=default;align=center;verticalAlign=middle;fontFamily=Times New Roman;fontSize=24;fontColor=default;fillColor=default;" vertex="1" parent="1">
          <mxGeometry x="1540" y="1440" width="360" height="100" as="geometry" />
        </mxCell>
        <mxCell id="zHHLwWhvpyaCA2TflrLo-64" style="edgeStyle=orthogonalEdgeStyle;rounded=0;orthogonalLoop=1;jettySize=auto;html=1;exitX=0.5;exitY=1;exitDx=0;exitDy=0;fontFamily=Times New Roman;fontSize=24;fontColor=default;" edge="1" parent="1" source="zHHLwWhvpyaCA2TflrLo-62">
          <mxGeometry relative="1" as="geometry">
            <mxPoint x="1719.8461538461538" y="1720" as="targetPoint" />
          </mxGeometry>
        </mxCell>
        <mxCell id="zHHLwWhvpyaCA2TflrLo-62" value="temp = a[n - i];" style="whiteSpace=wrap;html=1;strokeColor=default;align=center;verticalAlign=middle;fontFamily=Times New Roman;fontSize=24;fontColor=default;fillColor=default;" vertex="1" parent="1">
          <mxGeometry x="1640" y="1600" width="160" height="60" as="geometry" />
        </mxCell>
        <mxCell id="zHHLwWhvpyaCA2TflrLo-63" value="True" style="text;html=1;align=center;verticalAlign=middle;resizable=0;points=[];autosize=1;strokeColor=none;fillColor=none;fontSize=24;fontFamily=Times New Roman;fontColor=default;" vertex="1" parent="1">
          <mxGeometry x="1720" y="1550" width="70" height="40" as="geometry" />
        </mxCell>
        <mxCell id="zHHLwWhvpyaCA2TflrLo-66" style="edgeStyle=orthogonalEdgeStyle;rounded=0;orthogonalLoop=1;jettySize=auto;html=1;exitX=0.5;exitY=1;exitDx=0;exitDy=0;fontFamily=Times New Roman;fontSize=24;fontColor=default;" edge="1" parent="1" source="zHHLwWhvpyaCA2TflrLo-65">
          <mxGeometry relative="1" as="geometry">
            <mxPoint x="1719.8461538461538" y="1880" as="targetPoint" />
          </mxGeometry>
        </mxCell>
        <mxCell id="zHHLwWhvpyaCA2TflrLo-70" style="edgeStyle=orthogonalEdgeStyle;rounded=0;orthogonalLoop=1;jettySize=auto;html=1;exitX=1;exitY=0.5;exitDx=0;exitDy=0;fontFamily=Times New Roman;fontSize=24;fontColor=default;" edge="1" parent="1" source="zHHLwWhvpyaCA2TflrLo-65">
          <mxGeometry relative="1" as="geometry">
            <mxPoint x="1960" y="1840" as="targetPoint" />
            <Array as="points">
              <mxPoint x="1960" y="1765" />
            </Array>
          </mxGeometry>
        </mxCell>
        <mxCell id="zHHLwWhvpyaCA2TflrLo-65" value="for (int j = n - 2;&amp;nbsp; j &amp;gt;= 0; j --){" style="shape=hexagon;perimeter=hexagonPerimeter2;whiteSpace=wrap;html=1;fixedSize=1;strokeColor=default;align=center;verticalAlign=middle;fontFamily=Times New Roman;fontSize=24;fontColor=default;fillColor=default;" vertex="1" parent="1">
          <mxGeometry x="1540" y="1720" width="360" height="90" as="geometry" />
        </mxCell>
        <mxCell id="zHHLwWhvpyaCA2TflrLo-68" style="edgeStyle=orthogonalEdgeStyle;rounded=0;orthogonalLoop=1;jettySize=auto;html=1;exitX=0.5;exitY=1;exitDx=0;exitDy=0;entryX=0;entryY=0.5;entryDx=0;entryDy=0;fontFamily=Times New Roman;fontSize=24;fontColor=default;" edge="1" parent="1" source="zHHLwWhvpyaCA2TflrLo-67" target="zHHLwWhvpyaCA2TflrLo-65">
          <mxGeometry relative="1" as="geometry">
            <Array as="points">
              <mxPoint x="1720" y="2000" />
              <mxPoint x="1480" y="2000" />
              <mxPoint x="1480" y="1765" />
            </Array>
          </mxGeometry>
        </mxCell>
        <mxCell id="zHHLwWhvpyaCA2TflrLo-67" value="a[j + 1] = a[j];" style="whiteSpace=wrap;html=1;strokeColor=default;align=center;verticalAlign=middle;fontFamily=Times New Roman;fontSize=24;fontColor=default;fillColor=default;" vertex="1" parent="1">
          <mxGeometry x="1640" y="1880" width="160" height="60" as="geometry" />
        </mxCell>
        <mxCell id="zHHLwWhvpyaCA2TflrLo-69" value="True" style="text;html=1;align=center;verticalAlign=middle;resizable=0;points=[];autosize=1;strokeColor=none;fillColor=none;fontSize=24;fontFamily=Times New Roman;fontColor=default;" vertex="1" parent="1">
          <mxGeometry x="1720" y="1820" width="70" height="40" as="geometry" />
        </mxCell>
        <mxCell id="zHHLwWhvpyaCA2TflrLo-72" style="edgeStyle=orthogonalEdgeStyle;rounded=0;orthogonalLoop=1;jettySize=auto;html=1;exitX=0.5;exitY=1;exitDx=0;exitDy=0;entryX=0;entryY=0.5;entryDx=0;entryDy=0;fontFamily=Times New Roman;fontSize=24;fontColor=default;" edge="1" parent="1" source="zHHLwWhvpyaCA2TflrLo-71" target="zHHLwWhvpyaCA2TflrLo-60">
          <mxGeometry relative="1" as="geometry">
            <Array as="points">
              <mxPoint x="1960" y="2040" />
              <mxPoint x="1440" y="2040" />
              <mxPoint x="1440" y="1490" />
            </Array>
          </mxGeometry>
        </mxCell>
        <mxCell id="zHHLwWhvpyaCA2TflrLo-71" value="a[0] = temp;" style="whiteSpace=wrap;html=1;strokeColor=default;align=center;verticalAlign=middle;fontFamily=Times New Roman;fontSize=24;fontColor=default;fillColor=default;" vertex="1" parent="1">
          <mxGeometry x="1880" y="1840" width="160" height="60" as="geometry" />
        </mxCell>
        <mxCell id="zHHLwWhvpyaCA2TflrLo-75" value="False" style="text;html=1;align=center;verticalAlign=middle;resizable=0;points=[];autosize=1;strokeColor=none;fillColor=none;fontSize=24;fontFamily=Times New Roman;fontColor=default;" vertex="1" parent="1">
          <mxGeometry x="1205" y="1440" width="70" height="40" as="geometry" />
        </mxCell>
        <mxCell id="zHHLwWhvpyaCA2TflrLo-77" style="edgeStyle=orthogonalEdgeStyle;rounded=0;orthogonalLoop=1;jettySize=auto;html=1;exitX=0.5;exitY=1;exitDx=0;exitDy=0;fontFamily=Times New Roman;fontSize=24;fontColor=default;" edge="1" parent="1" source="zHHLwWhvpyaCA2TflrLo-76">
          <mxGeometry relative="1" as="geometry">
            <mxPoint x="1360" y="2240" as="targetPoint" />
          </mxGeometry>
        </mxCell>
        <mxCell id="zHHLwWhvpyaCA2TflrLo-81" style="edgeStyle=orthogonalEdgeStyle;rounded=0;orthogonalLoop=1;jettySize=auto;html=1;exitX=1;exitY=0.5;exitDx=0;exitDy=0;fontFamily=Times New Roman;fontSize=24;fontColor=default;" edge="1" parent="1" source="zHHLwWhvpyaCA2TflrLo-76">
          <mxGeometry relative="1" as="geometry">
            <mxPoint x="1600" y="2240" as="targetPoint" />
          </mxGeometry>
        </mxCell>
        <mxCell id="zHHLwWhvpyaCA2TflrLo-76" value="for (int i = 0; i &amp;lt; n; i ++){" style="shape=hexagon;perimeter=hexagonPerimeter2;whiteSpace=wrap;html=1;fixedSize=1;strokeColor=default;align=center;verticalAlign=middle;fontFamily=Times New Roman;fontSize=24;fontColor=default;fillColor=default;" vertex="1" parent="1">
          <mxGeometry x="1220" y="2120" width="280" height="80" as="geometry" />
        </mxCell>
        <mxCell id="zHHLwWhvpyaCA2TflrLo-80" style="edgeStyle=orthogonalEdgeStyle;rounded=0;orthogonalLoop=1;jettySize=auto;html=1;exitX=0.5;exitY=1;exitDx=0;exitDy=0;entryX=0;entryY=0.5;entryDx=0;entryDy=0;fontFamily=Times New Roman;fontSize=24;fontColor=default;" edge="1" parent="1" source="zHHLwWhvpyaCA2TflrLo-78" target="zHHLwWhvpyaCA2TflrLo-76">
          <mxGeometry relative="1" as="geometry">
            <Array as="points">
              <mxPoint x="1360" y="2340" />
              <mxPoint x="1160" y="2340" />
              <mxPoint x="1160" y="2160" />
            </Array>
          </mxGeometry>
        </mxCell>
        <mxCell id="zHHLwWhvpyaCA2TflrLo-78" value="cout &amp;lt;&amp;lt; a[i] &amp;lt;&amp;lt; &quot; &quot;;" style="shape=parallelogram;perimeter=parallelogramPerimeter;whiteSpace=wrap;html=1;fixedSize=1;fontSize=24;fontFamily=Times New Roman;" vertex="1" parent="1">
          <mxGeometry x="1230" y="2240" width="260" height="70" as="geometry" />
        </mxCell>
        <mxCell id="zHHLwWhvpyaCA2TflrLo-82" value="return 0;" style="whiteSpace=wrap;html=1;strokeColor=default;align=center;verticalAlign=middle;fontFamily=Times New Roman;fontSize=24;fontColor=default;fillColor=default;" vertex="1" parent="1">
          <mxGeometry x="1520" y="2240" width="160" height="60" as="geometry" />
        </mxCell>
        <mxCell id="zHHLwWhvpyaCA2TflrLo-85" style="edgeStyle=orthogonalEdgeStyle;rounded=0;orthogonalLoop=1;jettySize=auto;html=1;exitX=0.5;exitY=1;exitDx=0;exitDy=0;fontFamily=Times New Roman;fontSize=24;fontColor=default;" edge="1" parent="1" source="zHHLwWhvpyaCA2TflrLo-84">
          <mxGeometry relative="1" as="geometry">
            <mxPoint x="2080" y="2240" as="targetPoint" />
          </mxGeometry>
        </mxCell>
        <mxCell id="zHHLwWhvpyaCA2TflrLo-88" style="edgeStyle=orthogonalEdgeStyle;rounded=0;orthogonalLoop=1;jettySize=auto;html=1;exitX=1;exitY=0.5;exitDx=0;exitDy=0;fontFamily=Times New Roman;fontSize=24;fontColor=default;entryX=0.5;entryY=0;entryDx=0;entryDy=0;" edge="1" parent="1" source="zHHLwWhvpyaCA2TflrLo-84" target="zHHLwWhvpyaCA2TflrLo-89">
          <mxGeometry relative="1" as="geometry">
            <mxPoint x="2330" y="2230" as="targetPoint" />
          </mxGeometry>
        </mxCell>
        <mxCell id="zHHLwWhvpyaCA2TflrLo-84" value="for (int i = 0; i &amp;lt; n; i ++){" style="shape=hexagon;perimeter=hexagonPerimeter2;whiteSpace=wrap;html=1;fixedSize=1;strokeColor=default;align=center;verticalAlign=middle;fontFamily=Times New Roman;fontSize=24;fontColor=default;fillColor=default;" vertex="1" parent="1">
          <mxGeometry x="1940" y="2120" width="280" height="80" as="geometry" />
        </mxCell>
        <mxCell id="zHHLwWhvpyaCA2TflrLo-87" style="edgeStyle=orthogonalEdgeStyle;rounded=0;orthogonalLoop=1;jettySize=auto;html=1;exitX=0.5;exitY=1;exitDx=0;exitDy=0;entryX=0;entryY=0.5;entryDx=0;entryDy=0;fontFamily=Times New Roman;fontSize=24;fontColor=default;" edge="1" parent="1" source="zHHLwWhvpyaCA2TflrLo-86" target="zHHLwWhvpyaCA2TflrLo-84">
          <mxGeometry relative="1" as="geometry">
            <Array as="points">
              <mxPoint x="2080" y="2340" />
              <mxPoint x="1880" y="2340" />
              <mxPoint x="1880" y="2160" />
            </Array>
          </mxGeometry>
        </mxCell>
        <mxCell id="zHHLwWhvpyaCA2TflrLo-86" value="cout &amp;lt;&amp;lt; a[i] &amp;lt;&amp;lt; &quot; &quot;;" style="shape=parallelogram;perimeter=parallelogramPerimeter;whiteSpace=wrap;html=1;fixedSize=1;fontSize=24;fontFamily=Times New Roman;" vertex="1" parent="1">
          <mxGeometry x="1950" y="2240" width="260" height="70" as="geometry" />
        </mxCell>
        <mxCell id="zHHLwWhvpyaCA2TflrLo-89" value="return 0;" style="whiteSpace=wrap;html=1;strokeColor=default;align=center;verticalAlign=middle;fontFamily=Times New Roman;fontSize=24;fontColor=default;fillColor=default;" vertex="1" parent="1">
          <mxGeometry x="2250" y="2240" width="160" height="60" as="geometry" />
        </mxCell>
        <mxCell id="zHHLwWhvpyaCA2TflrLo-90" value="False" style="text;html=1;align=center;verticalAlign=middle;resizable=0;points=[];autosize=1;strokeColor=none;fillColor=none;fontSize=24;fontFamily=Times New Roman;fontColor=default;" vertex="1" parent="1">
          <mxGeometry x="1960" y="1430" width="70" height="40" as="geometry" />
        </mxCell>
        <mxCell id="zHHLwWhvpyaCA2TflrLo-91" value="}" style="text;html=1;align=center;verticalAlign=middle;resizable=0;points=[];autosize=1;strokeColor=none;fillColor=none;fontSize=24;fontFamily=Times New Roman;fontColor=default;" vertex="1" parent="1">
          <mxGeometry x="800" y="790" width="40" height="40" as="geometry" />
        </mxCell>
        <mxCell id="zHHLwWhvpyaCA2TflrLo-92" value="}" style="text;html=1;align=center;verticalAlign=middle;resizable=0;points=[];autosize=1;strokeColor=none;fillColor=none;fontSize=24;fontFamily=Times New Roman;fontColor=default;" vertex="1" parent="1">
          <mxGeometry x="1201" y="900" width="40" height="40" as="geometry" />
        </mxCell>
        <mxCell id="zHHLwWhvpyaCA2TflrLo-93" value="True" style="text;html=1;align=center;verticalAlign=middle;resizable=0;points=[];autosize=1;strokeColor=none;fillColor=none;fontSize=24;fontFamily=Times New Roman;fontColor=default;" vertex="1" parent="1">
          <mxGeometry x="950" y="1820" width="70" height="40" as="geometry" />
        </mxCell>
        <mxCell id="zHHLwWhvpyaCA2TflrLo-95" value="}" style="text;html=1;align=center;verticalAlign=middle;resizable=0;points=[];autosize=1;strokeColor=none;fillColor=none;fontSize=24;fontFamily=Times New Roman;fontColor=default;" vertex="1" parent="1">
          <mxGeometry x="1360" y="2060" width="40" height="40" as="geometry" />
        </mxCell>
        <mxCell id="zHHLwWhvpyaCA2TflrLo-96" value="False" style="text;html=1;align=center;verticalAlign=middle;resizable=0;points=[];autosize=1;strokeColor=none;fillColor=none;fontSize=24;fontFamily=Times New Roman;fontColor=default;" vertex="1" parent="1">
          <mxGeometry x="1135" y="1700" width="70" height="40" as="geometry" />
        </mxCell>
        <mxCell id="zHHLwWhvpyaCA2TflrLo-97" value="}" style="text;html=1;align=center;verticalAlign=middle;resizable=0;points=[];autosize=1;strokeColor=none;fillColor=none;fontSize=24;fontFamily=Times New Roman;fontColor=default;" vertex="1" parent="1">
          <mxGeometry x="1220" y="1910" width="40" height="40" as="geometry" />
        </mxCell>
        <mxCell id="zHHLwWhvpyaCA2TflrLo-98" value="}" style="text;html=1;align=center;verticalAlign=middle;resizable=0;points=[];autosize=1;strokeColor=none;fillColor=none;fontSize=24;fontFamily=Times New Roman;fontColor=default;" vertex="1" parent="1">
          <mxGeometry x="1610" y="2190" width="40" height="40" as="geometry" />
        </mxCell>
        <mxCell id="zHHLwWhvpyaCA2TflrLo-99" value="}" style="text;html=1;align=center;verticalAlign=middle;resizable=0;points=[];autosize=1;strokeColor=none;fillColor=none;fontSize=24;fontFamily=Times New Roman;fontColor=default;" vertex="1" parent="1">
          <mxGeometry x="1680" y="2255" width="40" height="40" as="geometry" />
        </mxCell>
        <mxCell id="zHHLwWhvpyaCA2TflrLo-100" value="}" style="text;html=1;align=center;verticalAlign=middle;resizable=0;points=[];autosize=1;strokeColor=none;fillColor=none;fontSize=24;fontFamily=Times New Roman;fontColor=default;" vertex="1" parent="1">
          <mxGeometry x="1970" y="1910" width="40" height="40" as="geometry" />
        </mxCell>
        <mxCell id="zHHLwWhvpyaCA2TflrLo-101" value="}" style="text;html=1;align=center;verticalAlign=middle;resizable=0;points=[];autosize=1;strokeColor=none;fillColor=none;fontSize=24;fontFamily=Times New Roman;fontColor=default;" vertex="1" parent="1">
          <mxGeometry x="2090" y="2060" width="40" height="40" as="geometry" />
        </mxCell>
        <mxCell id="zHHLwWhvpyaCA2TflrLo-102" value="}" style="text;html=1;align=center;verticalAlign=middle;resizable=0;points=[];autosize=1;strokeColor=none;fillColor=none;fontSize=24;fontFamily=Times New Roman;fontColor=default;" vertex="1" parent="1">
          <mxGeometry x="2330" y="2190" width="40" height="40" as="geometry" />
        </mxCell>
        <mxCell id="zHHLwWhvpyaCA2TflrLo-103" value="}" style="text;html=1;align=center;verticalAlign=middle;resizable=0;points=[];autosize=1;strokeColor=none;fillColor=none;fontSize=24;fontFamily=Times New Roman;fontColor=default;" vertex="1" parent="1">
          <mxGeometry x="2430" y="2250" width="40" height="40" as="geometry" />
        </mxCell>
        <mxCell id="zHHLwWhvpyaCA2TflrLo-104" value="True" style="text;html=1;align=center;verticalAlign=middle;resizable=0;points=[];autosize=1;strokeColor=none;fillColor=none;fontSize=24;fontFamily=Times New Roman;fontColor=default;" vertex="1" parent="1">
          <mxGeometry x="1360" y="2200" width="70" height="40" as="geometry" />
        </mxCell>
        <mxCell id="zHHLwWhvpyaCA2TflrLo-105" value="False" style="text;html=1;align=center;verticalAlign=middle;resizable=0;points=[];autosize=1;strokeColor=none;fillColor=none;fontSize=24;fontFamily=Times New Roman;fontColor=default;" vertex="1" parent="1">
          <mxGeometry x="1900" y="1720" width="70" height="40" as="geometry" />
        </mxCell>
        <mxCell id="zHHLwWhvpyaCA2TflrLo-106" value="False" style="text;html=1;align=center;verticalAlign=middle;resizable=0;points=[];autosize=1;strokeColor=none;fillColor=none;fontSize=24;fontFamily=Times New Roman;fontColor=default;" vertex="1" parent="1">
          <mxGeometry x="1520" y="2120" width="70" height="40" as="geometry" />
        </mxCell>
        <mxCell id="zHHLwWhvpyaCA2TflrLo-107" value="False" style="text;html=1;align=center;verticalAlign=middle;resizable=0;points=[];autosize=1;strokeColor=none;fillColor=none;fontSize=24;fontFamily=Times New Roman;fontColor=default;" vertex="1" parent="1">
          <mxGeometry x="2230" y="2120" width="70" height="40" as="geometry" />
        </mxCell>
        <mxCell id="zHHLwWhvpyaCA2TflrLo-108" value="True" style="text;html=1;align=center;verticalAlign=middle;resizable=0;points=[];autosize=1;strokeColor=none;fillColor=none;fontSize=24;fontFamily=Times New Roman;fontColor=default;" vertex="1" parent="1">
          <mxGeometry x="2075" y="2200" width="70" height="40" as="geometry" />
        </mxCell>
      </root>
    </mxGraphModel>
  </diagram>
</mxfile>
